<?xml version="1.0" encoding="UTF-8"?>
<svg id="_Слой_1" data-name="Слой 1" xmlns="http://www.w3.org/2000/svg" viewBox="0 0 110.95 91.19">
  <defs>
    <style>
      .cls-1, .cls-2 {
        stroke: #000;
        stroke-miterlimit: 10;
      }

      .cls-2 {
        fill: none;
        stroke-width: 3px;
      }
    </style>
  </defs>
  <path d="M38.49,.89c-2.11,.52-4.2,1.08-6.23,1.89-3.11,1.24-5.97,2.91-8.54,5.06-3.75,3.14-6.91,7.05-8.73,11.62-.59,1.48-.96,3.01-1.26,4.58-.13,.65-.25,1.31-.39,1.96-.06,.28-.12,.56-.19,.83-.02,.08-.06,.17-.08,.25-.06,.15-.03,.09,.08-.19-.08,.13-.02,.06,.17-.22l.66-.39h-.02c.39,.05,.77,.1,1.16,.16h-.02c.18,.17,.36,.35,.54,.53l.13,.31c.03,.33,.05,.41,.04,.25,.01-.03,0-.11,0-.14,.02-.16,.02-.32,.04-.48,.03-.41,.07-.83,.07-1.24,0-1.08-.2-2.3-1.18-2.93-1.37-.88-3.11,.06-4.27,.88-4.08,2.88-7.19,7.4-8.91,12.05-1.96,5.28-2.02,11.23-.6,16.65,.84,3.23,2.23,6.21,4.34,8.79,2.69,3.29,6.46,5.97,10.72,6.64,2.56,.41,5.22,.45,7.78,0,.85-.15,1.83-.56,2.56-.67,1.22-.18,2.27,.18,3.32,.75,6.78,3.66,13.42,7.57,20.06,11.47,5.53,3.25,11.04,6.52,16.53,9.81,1.88,1.13,3.78,2.28,6.1,2.05,1.89-.18,3.42-.96,4.96-2,.74-.51,1.51-.98,2.28-1.45,5.8-3.57,11.7-6.97,17.6-10.37,2.55-1.47,5.11-2.93,7.68-4.36,.68-.38,1.37-.76,2.06-1.12,1.99-1.04,3.34-2.81,3.49-5.09,.04-.61-.04-1.23-.09-1.84-.1-1.25-.15-2.51-.17-3.76-.05-4.85,.44-9.66,.69-14.5,.06-1.15,.11-2.39-.28-3.48-.26-.72-.67-1.31-1.15-1.9-1.69-2.06-4.12-3.58-6.47-4.76s-4.85-2.08-7.39-2.77l1.05,1.05c-.36-2.01-1.12-3.8-1.96-5.66-1.18-2.58-2.46-5.11-3.67-7.68-.56-1.18-.97-2.78-2.41-3.14-1.33-.34-2.54,.65-3.37,1.57-1.54,1.72-3.05,4.03-3.75,6.25,.15-.47-.07,.15-.08,.13-.12-.13,.64-.45,.48-.41-.26,.07,.39-.03,.17-.02-.24,.01,.1,.02,.18,.03-.06,0-.11-.03-.17-.05-.15-.05,.34,.21,.07,.02-.15-.1-.42-.34-.13-.06-.15-.14-.32-.27-.47-.42-.35-.34-.67-.71-.98-1.08-.19-.22-.37-.45-.55-.68-.26-.33-.25-.31-.45-.58-.45-.58-.89-1.17-1.33-1.76-1.14-1.51-2.28-3.01-3.47-4.47-2.3-2.84-4.68-5.73-7.39-8.2-2-1.83-4.26-3.42-6.63-4.74C54.52,.39,47.28-.78,40.28,.51c-.6,.11-1.2,.24-1.79,.39-1.87,.46-1.08,3.36,.8,2.89,6.14-1.51,12.97-.84,18.68,1.99,2.14,1.06,4.23,2.37,6.08,3.89,2.68,2.2,4.92,4.88,7.16,7.51s4.2,5.35,6.29,8.04c1.09,1.4,2.52,3.54,4.49,3.62,.98,.04,1.82-.54,2.21-1.42,.12-.27,.23-.54,.33-.81,.1-.25-.08,.16,.05-.12,.09-.2,.18-.4,.28-.6,.24-.48,.5-.94,.77-1.4s.54-.86,.83-1.28c.16-.23,.32-.46,.49-.68,.1-.14,0,0-.02,.02,.04-.05,.09-.11,.13-.16,.1-.12,.21-.25,.31-.37,.19-.21,.39-.4,.59-.59,.04-.04,.09-.08,.14-.12-.01,0-.22,.15-.08,.07,.1-.06,.21-.12,.31-.18-.16,.1-.23,.08-.02,.03-.23,.05-.17,.08-.41,0-.02,0-.32-.17-.32-.18-.05,.03,.02-.04,.03,.09s.14,.3,.19,.42c1.06,2.4,2.26,4.73,3.38,7.1,.3,.64,.6,1.28,.9,1.92,.13,.28,.25,.56,.38,.83,.06,.13,.12,.27,.18,.4,.03,.08,.19,.43,.14,.33-.05-.12,.08,.19,.1,.25,.05,.13,.11,.27,.16,.41,.09,.23,.17,.45,.25,.69,.12,.34,.22,.68,.29,1.03s.13,.72,.19,1.08c.09,.5,.58,.92,1.05,1.05,2.74,.75,5.31,1.68,7.78,3.05,.87,.48,1.71,1.02,2.51,1.61,.06,.04,.12,.09,.18,.13,.3,.21-.25-.2,.03,.02,.14,.11,.28,.22,.41,.34,.24,.21,.48,.42,.72,.64,.31,.29,.6,.61,.88,.93s-.15-.22-.05-.07c.04,.06,.09,.12,.13,.17,.13,.18,.24,.37,.35,.56,.19,.33-.03-.16-.01-.04s.08,.25,.11,.37c.03,.11,.04,.23,.07,.35,.03,.12-.03-.41,0,.02,.02,.34,.03,.67,.03,1.01-.03,2.34-.3,4.69-.45,7.02-.18,2.82-.31,5.65-.28,8.48,.01,1.33,.08,2.65,.19,3.97,.03,.36,.06,.72,.07,1.07,0,.14,0,.28,0,.43,0,.06-.01,.12-.01,.19,0,.09-.06,.24,.02-.13-.04,.17-.06,.35-.11,.52-.29,1.07-.99,1.52-1.9,1.99-.32,.17-.64,.33-.95,.51-1.1,.6-2.19,1.21-3.27,1.82-3.32,1.88-6.63,3.78-9.93,5.7s-6.87,4.01-10.28,6.05c-1.93,1.16-3.9,2.28-5.72,3.59-1.96,1.42-4.06,1.61-6.03,.45-.38-.22-.75-.45-1.13-.68-2.43-1.45-4.85-2.9-7.28-4.35-7.69-4.57-15.4-9.12-23.18-13.54-1.71-.97-3.42-1.93-5.14-2.88-.92-.5-1.83-1.05-2.81-1.43-1.49-.59-3.18-.63-4.73-.21-1.14,.31-2.14,.6-3.24,.68-1.39,.11-2.79,.09-4.17-.05-.63-.06-.9-.1-1.58-.25s-1.33-.35-1.97-.59c-.96-.37-2.13-1.05-3.08-1.73-.68-.49-1.55-1.25-2.28-2-.33-.34-.65-.69-.95-1.04-.14-.16-.27-.32-.41-.49-.06-.07-.11-.14-.17-.21-.17-.21,.18,.24-.07-.1-.83-1.13-1.51-2.31-2.07-3.59-.06-.13-.1-.22-.21-.51-.1-.25-.19-.51-.28-.77-.23-.65-.43-1.31-.61-1.98-.35-1.31-.62-2.66-.76-3.97-.32-3.05-.16-6.14,.63-9.11s2.22-5.73,4.07-8.19c.74-.99,1.63-1.97,2.54-2.85,.38-.36,.77-.7,1.17-1.04,.05-.04,.29-.23,.07-.06,.1-.08,.21-.16,.31-.23,.19-.14,.39-.27,.59-.4,.18-.11,.36-.21,.55-.31,.06-.03,.12-.05,.17-.08,.28-.15-.32,.08-.03,.02,.11-.02,.27-.06,.37-.11,.24-.11-.39,.02-.14,.02,.35,0-.33-.09-.12-.03,.14,.04,.06,.06-.22-.1,.13,.08-.24-.25-.25-.28l.05,.08c-.08-.21-.1-.24-.04-.08,.03,.02,.04,.17,.05,.22-.1-.36,0-.02,0,.08,0,.13,0,.26,0,.38,0,.26-.01,.51-.03,.77-.08,1.1-.24,2.56,1.27,2.76s1.83-1.32,2.06-2.41c.53-2.46,.89-4.94,1.95-7.23s2.41-4.26,3.98-6.03c3.17-3.56,7.16-6.46,11.52-8.1,1.83-.69,3.71-1.17,5.6-1.64s1.08-3.36-.8-2.89Z"/>
  <path class="cls-2" d="M25.77,65.68c3.95-1.86,5.82-4.12,6.79-5.87,1.51-2.71,1.27-4.85,3.63-7,.7-.64,2.4-2.17,4.48-2,2.5,.21,3.11,2.7,5.08,2.58,1.8-.1,3.54-2.32,3.74-4.37,.34-3.39-3.51-6.3-6.59-7.22-3.64-1.09-7.73,.14-9.89,2.58-.32,.37-.47,.61-1.16,1.78-4.76,8.14-5.17,9.36-6.77,10.6-.41,.32-3.47,2.63-6.86,1.96-4.99-.98-7.22-7.7-7.75-11.41-.86-6.07,1.61-12.85,3.74-12.92,.53-.02,.89,.38,1.34,.8,.7,.67,5.31,3.01,14.49,7.67,.72,.37,2.25,1.14,2.97,1.51"/>
  <path class="cls-2" d="M48.27,51.88c13.96,8.48,19.78,10.57,21.04,11.3,.19,.11,.73,.17,1.33,.8,.42,.45,.76,1.5,.75,1.83-.04,.78,.01,7.34,.3,20.47,.01,.66,.05,1.87,.12,3.42"/>
  <path d="M72.06,65.55c1.79-.97,3.56-1.97,5.29-3.04,.29-.18,.58-.36,.86-.54,.18-.12,.37-.24,.56-.35,.05-.03,.1-.03,.12-.06,0,0,.17-.04-.2-.02,.06,0,.13,.04,.18,.05-.03,0-.24-.15-.15-.06,.26,.24-.17-.23,.08,.05,.08,.09,.17,.18,.25,.27-.25-.28,.08,.12,.13,.21,.88,1.35,1.56,2.76,2.9,3.73,1.68,1.22,3.93,1.21,5.76,.35s3.15-2.65,3.7-4.54c.62-2.13,.13-4.49-1.04-6.35s-2.96-3.25-5.1-3.8c-1.66-.43-3.46-.41-5.14-.1-2.15,.39-4.15,1.54-5.9,2.81-1.93,1.41-3.56,3.14-4.87,5.13-.45,.68-.13,1.66,.54,2.05,.73,.43,1.61,.14,2.05-.54,.92-1.4,2.04-2.66,3.41-3.76,1.21-.97,2.74-1.94,4.14-2.43s2.83-.6,4.25-.43c.17,.02,.03,0,0,0,.11,.02,.22,.04,.32,.06,.17,.03,.33,.07,.5,.12,.42,.11,.73,.22,1.1,.42,.7,.37,1.36,.92,1.81,1.52,1.01,1.31,1.51,3,1.02,4.6-.16,.51-.53,1.19-.95,1.65-.54,.59-1.1,.97-1.87,1.14-.1,.02-.2,.04-.3,.06,.3-.05-.2,0-.29,0-.17,0-.33,0-.49-.04-.15-.03-.3-.08-.44-.12-.07-.02-.21-.1-.06-.03-.15-.08-.3-.16-.44-.26s-.01,0,.02,.02c-.07-.06-.15-.12-.21-.19-.12-.11-.24-.23-.34-.35-.05-.05-.09-.11-.14-.16-.17-.2,.03,.05-.06-.08-.72-1.02-1.2-2.28-2.14-3.14-.66-.6-1.48-.93-2.37-.83-.97,.11-1.76,.74-2.57,1.24-1.77,1.09-3.58,2.12-5.41,3.11-1.7,.92-.18,3.51,1.51,2.59h0Z"/>
  <path d="M88.97,56.07c1.61-.96,3.18-1.99,4.62-3.19,.11-.09,.21-.18,.31-.27,.08-.07,.19-.26,.17-.16h-.03c-.31,.03-.61-.06-.9-.25,.05,0-.24-.12-.07-.08,.09,.02-.04-.13,0,.01,.02,.1,.06,.2,.08,.3,.25,1,.46,2,1.03,2.89,1.12,1.74,3.05,2.95,5.12,3.14s3.71-.92,4.74-2.55c1.89-2.99,1.66-6.98-.47-9.76-.73-.94-1.6-1.76-2.66-2.3-1.6-.82-3.35-1.02-5.12-.95-2.27,.1-4.41,.81-6.1,2.37-1.27,1.17-2.17,2.76-2.61,4.42-.49,1.87,2.41,2.67,2.89,.8,.04-.17,.09-.33,.15-.5,.03-.1,.07-.2,.11-.3,.01-.04,.11-.27,.04-.1s.04-.09,.06-.12c.31-.64,.64-1.2,1.08-1.67,.54-.58,1.18-1.07,1.91-1.39,.37-.16,.78-.27,1.18-.36,.19-.04,.39-.08,.58-.11-.21,.03,.2-.01,.27-.02,1.36-.1,2.55-.12,3.76,.38,.37,.15,.71,.37,1.05,.59,.54,.36-.28-.27,.1,.08,.3,.27,.59,.55,.85,.86,.05,.06,.11,.13,.16,.19-.02-.02-.14-.18-.04-.04,.08,.11,.16,.23,.24,.34,.19,.3,.37,.61,.51,.93,.2,.45,.38,1.28,.38,1.91,0,.15,0,.31-.02,.46,0,.07-.04,.41-.02,.29s-.04,.24-.05,.31c-.04,.2-.08,.4-.14,.59-.19,.71-.32,1.04-.75,1.7-.14,.21,.03,0-.14,.18-.12,.13-.24,.25-.37,.37s-.01,.02,.01,0c-.06,.04-.12,.09-.19,.12s-.44,.22-.25,.14c-.63,.24-1.21,.18-1.89-.1-.6-.25-1.2-.7-1.65-1.25-.4-.49-.61-1.32-.77-2.02-.22-.94-.54-1.9-1.5-2.31-1.15-.49-2.09,.19-2.93,.91-.59,.51-.8,.66-1.51,1.16-.89,.62-1.8,1.2-2.73,1.75-1.66,.99-.15,3.58,1.51,2.59h0Z"/>
  <path class="cls-2" d="M95.22,35.2c.82,.86,2.11,2.42,2.94,4.72,.64,1.76,.78,3.33,.79,4.4"/>
  <line class="cls-2" x1="108.27" y1="42.2" x2="101.17" y2="46.18"/>
  <path d="M102.68,40.25c-1.26,.64-2.53,1.29-3.79,1.93l-.53,.27c-.47,.24-.64,.93-.36,1.37,.31,.48,.87,.61,1.37,.36,1.26-.64,2.53-1.29,3.79-1.93l.53-.27c.47-.24,.64-.93,.36-1.37-.31-.48-.87-.61-1.37-.36h0Z"/>
  <path d="M101.12,38.01c-.95,.53-1.89,1.06-2.84,1.59l-.41,.23c-.46,.26-.65,.92-.36,1.37s.88,.63,1.37,.36c.95-.53,1.89-1.06,2.84-1.59l.41-.23c.46-.26,.65-.92,.36-1.37s-.88-.63-1.37-.36h0Z"/>
  <path d="M55.98,47.25c.1-4.25,.37-8.5,.86-12.72,.22-1.96,.48-3.93,.89-5.86,.14-.66,.3-1.33,.5-1.97,.07-.24,.17-.47,.25-.71,.11-.32-.11,.22,0,0,.05-.11,.1-.22,.15-.32,.08-.15,.18-.3,.26-.45,.16-.29-.2,.19-.05,.06,.06-.05,.11-.13,.17-.18,.04-.04,.13-.09,.15-.14s-.34,.26-.13,.11c.05-.03,.12-.05,.16-.09,.04-.04-.4,.05-.13,.06,.25,0,.39-.04,.68,.07,.49,.19,.96,.53,1.4,.82,.35,.24,.67,.52,.96,.83,.32,.35,.42,.5,.69,.94,.76,1.26,1.25,2.78,2.66,3.48,1.6,.79,3.12,.25,4.56-.59,1.85-1.08,3.68-2.11,5.82-2.22s4.03,.26,6.05,.47c.81,.09,1.5-.75,1.5-1.5,0-.88-.69-1.41-1.5-1.5-1.82-.19-3.62-.51-5.46-.49-2.36,.03-4.48,.71-6.54,1.84-.74,.41-1.46,.85-2.2,1.25-.06,.03-.27,.11,.03,0-.07,.03-.14,.06-.21,.08-.14,.04-.28,.08-.42,.11,.29-.06,.1-.04-.07-.03-.2,.01,.28,.08,.08,.01-.09-.03-.18-.05-.27-.08,.3,.09-.06-.05-.17-.11,.29,.18-.02-.05-.11-.14-.18-.17-.02-.02,.02,.04-.04-.06-.09-.13-.13-.19-.11-.18-.21-.35-.31-.53-.36-.68-.69-1.37-1.14-1.99-.72-.99-1.57-1.77-2.6-2.43-1.09-.7-2.3-1.31-3.63-1.12-1.03,.15-1.81,.75-2.4,1.58s-.96,1.97-1.23,3c-.49,1.86-.76,3.77-1.01,5.67-.66,4.96-1.02,9.96-1.14,14.96-.04,1.93,2.96,1.93,3,0h0Z"/>
  <path class="cls-1" d="M70.47,44c-2.74,0-2.75,4.86,0,4.86s2.75-4.86,0-4.86Z"/>
  <path d="M66.66,50.77c-2.97,.03-5.9,.86-8.44,2.39-1.1,.67-.1,2.4,1.01,1.73,2.25-1.36,4.81-2.09,7.43-2.12,1.29-.01,1.29-2.01,0-2h0Z"/>
  <path d="M67.76,53.15c-2.49,.78-4.87,1.91-7.04,3.37-.45,.3-.64,.88-.36,1.37,.26,.44,.92,.66,1.37,.36,2.05-1.37,4.23-2.43,6.56-3.17,.52-.16,.85-.7,.7-1.23s-.71-.86-1.23-.7h0Z"/>
  <path class="cls-1" d="M88.45,39.34c-2.74,0-2.75,4.86,0,4.86s2.75-4.86,0-4.86Z"/>
</svg>