<?xml version="1.0" encoding="UTF-8"?>
<svg xmlns="http://www.w3.org/2000/svg" viewBox="0 0 71.98 55.11">
  <g id="_Слой_1" data-name="Слой 1">
    <path d="M71.72,11.41c-1.13-2.05-2.32-4.08-3.71-5.96-.87-1.18-1.79-2.38-2.93-3.3-.92-.74-1.92-1.33-3.13-1.42-1.4-.1-2.61,.67-3.38,1.8-.86,1.26-1.13,2.9-1.54,4.35-.1,.36-.21,.72-.33,1.07-.07,.2-.14,.4-.22,.6-.03,.07-.17,.34-.03,.09,.15-.28-.08,.15-.1,.21-.18,.36-.38,.69-.6,1.02-.07,.1-.24,.25,.06-.07-.06,.07-.12,.14-.18,.21-.16,.18-.33,.33-.5,.49-.26,.24,.01-.01,.07-.05-.08,.05-.16,.11-.24,.16-.1,.07-.21,.12-.32,.18s-.24,.23-.07,.05c.16-.17,.01,0-.13,.04-.08,.03-.16,.05-.24,.07s-.16,.03-.24,.05c-.38,.1,.45,0,.06-.01-.15,0-.31,0-.46,0-.08,0-.16-.01-.23-.02-.35,0,.18,0,.18,.03,0-.01-1.05-.21-1.14-.23-2.06-.5-4.02-.78-6.13-.4s-4.1,1.45-5.87,2.72c-.28,.2-.56,.4-.85,.58-.14,.08-.28,.15-.42,.24-.22,.14,.05-.18,.2-.08-.02-.01-.25,.08-.27,.08-.22,.09-.03-.21,.25-.03-.03-.02-.16,.02-.19,0-.31-.11,.26,.11,.24,.04,0,0-.17-.04-.2-.04-.49-.17,.34,.11-.1-.04-.07-.02-.28-.2-.03,0,.28,.22-.03-.05-.09-.1-.32-.29,.19,.34-.04-.04-.1-.15-.19-.31-.28-.47-.19-.35-.36-.71-.53-1.07-.46-.97-.99-1.86-1.66-2.7-.77-.96-1.75-1.71-2.78-2.38-1.25-.81-2.72-1.33-4.2-.91-2.17,.62-3.06,3.04-3.57,5-1.13,4.37-1.38,8.98-1.82,13.46-.38,3.84-.76,7.71-.53,11.57,.31,4.96,1.21,9.91,2.68,14.66,.29,.92,.59,1.84,.92,2.75,.35,.98,1.38,1.75,2.46,1.4,.97-.31,1.78-1.41,1.4-2.46-.68-1.9-1.28-3.82-1.77-5.78-.28-1.11-.53-2.23-.75-3.36-.12-.6-.22-1.2-.32-1.8-.05-.29-.09-.58-.14-.87-.02-.15-.04-.3-.06-.44-.05-.36,0,.03-.05-.37-.48-3.85-.5-7.64-.18-11.5,.19-2.36,.44-4.72,.67-7.07,.13-1.28,.26-2.56,.42-3.83,.02-.13,.03-.26,.05-.4,0-.05,.06-.46,.03-.21-.04,.29,.04-.31,.04-.29,.02-.12,.03-.24,.05-.36,.07-.47,.14-.94,.22-1.4,.23-1.35,.49-2.72,.97-4.01,.04-.1,.1-.21,.12-.31-.1,.52-.16,.35-.05,.13,.09-.18,.18-.36,.29-.53,.04-.06,.1-.13,.13-.2,.08-.17-.39,.42-.15,.19,.1-.09,.23-.2,.31-.3-.24,.33-.45,.33-.23,.18,.05-.03,.12-.05,.16-.09,.14-.13-.48,.13-.29,.12,.03,0,.05-.02,.08-.03,.35-.05,.19,0,.06-.02-.4-.04,.45,.16,.37,.11-.19-.09,.19,.11,.23,.13,.12,.07,.24,.14,.36,.22,.24,.15,.47,.31,.7,.48,.03,.02,.38,.28,.22,.16-.07-.06,.27,.24,.33,.3,.18,.17,.36,.35,.52,.54,.04,.04,.28,.33,.13,.14s.07,.09,.1,.14c.28,.39,.52,.8,.74,1.23,.35,.68,.64,1.41,1.04,2.06,1.02,1.67,2.9,2.79,4.88,2.23,1.54-.43,2.72-1.68,4.09-2.45,.21-.12,.42-.23,.63-.33,.11-.05,.23-.11,.34-.16-.29,.13,.01,0,.06-.02,.59-.21,1.19-.4,1.8-.53,.13-.03,.25-.05,.38-.07-.38,.06,0,0,.11,0,.23-.02,.46-.03,.69-.04,.22,0,.43,0,.65,.02,.1,0,.21,.02,.31,.02,.47,.03-.09-.03,.06,0,1.51,.3,3.1,.87,4.65,.8,2.14-.11,3.92-1.31,5.16-3,1.01-1.38,1.51-3.08,1.95-4.71,.19-.69,.36-1.38,.6-2.05,.03-.07,.05-.14,.08-.21,.11-.31-.06,.16-.08,.18,.08-.06,.15-.31,.21-.41,.04-.07,.32-.46,.08-.15-.27,.35,.13-.08,.14-.12-.08,.23-.42,.28-.16,.14,.08-.04,.27-.13-.05,0-.34,.15-.07,.04,.01,.02,.4-.13-.65,.03-.14,.03s-.53-.15-.11-.02c.13,.04,.61,.22,.21,.05s.13,.08,.26,.16c.08,.05,.16,.1,.24,.15,.43,.28-.19-.17-.03-.03,.42,.37,.82,.74,1.19,1.15,.22,.24,.43,.49,.63,.74,.11,.14,.37,.48,.11,.13,.15,.2,.3,.39,.44,.59,.58,.81,1.13,1.64,1.66,2.49,.67,1.08,1.3,2.18,1.91,3.29,.51,.92,1.84,1.29,2.74,.72s1.26-1.76,.72-2.74h0Z"/>
  </g>
  <g id="_Слой_2" data-name="Слой 2">
    <path d="M14.7,27.99c-.46,2.93-.35,6.15,1.16,8.78,1.22,2.12,3.22,3.6,5.46,4.49,.56,.22,1.24-.25,1.38-.79,.18-.64-.22-1.16-.79-1.38-.05-.02-.28-.12-.02,0-.07-.03-.14-.06-.21-.09-.16-.07-.32-.15-.47-.23-.41-.21-.8-.44-1.18-.71-.91-.63-1.68-1.47-2.24-2.43-1.19-2.06-1.3-4.74-.94-7.05,.09-.6-.15-1.21-.79-1.38-.53-.15-1.29,.18-1.38,.79h0Z"/>
    <path d="M19.55,42.61c-2.11-.39-4.05-1.3-5.66-2.76-2.51-2.28-3.67-5.61-3.39-8.96,.12-1.44-2.13-1.43-2.25,0-.32,3.84,1.1,7.78,3.92,10.43,1.85,1.74,4.27,2.99,6.78,3.46,.6,.11,1.21-.16,1.38-.79,.15-.55-.19-1.27-.79-1.38h0Z"/>
  </g>
  <g id="_Слой_3" data-name="Слой 3">
    <path d="M3.58,5.2c-.13,.11,.19-.12,.25-.15,.26-.12,.56-.19,.83-.27,.88-.25,1.77-.43,2.66-.62,1.87-.4,3.76-.9,5.66-1.11,.44-.05,1.04-.08,1.39-.03,.2,.03,.49,.19,.53,.22,.29,.22,.25,.2,.46,.62,.08,.17,.23,.68,.32,1.08,.72,3.1,.91,6.34,1.49,9.47,.61,3.33,1.72,6.64,2.13,10,.05,.4,.08,.83,.04,1.23-.02,.15-.1,.3-.24,.61-.04,.08,0-.06-.11,.13-.18,.3,.14-.34,.14-.09,0,.02-.18,.1-.17,.1,0,0-.09,.05-.09,.05,.3-.02,.24-.09,.07-.04-2.87,.93-5.99,1.31-8.96,1.78-.96,.15-1.91,.26-2.87,.35-.11,.01-.23,0-.34-.01,.11,0,.4,.04,.14,0-.23-.03,.06,.02,.17,.08-.12-.06-.25-.12-.36-.2,.05,.04-.31-.33-.26-.26-.27-.41-.25-.42-.38-.82-.33-1.05-.49-2.14-.66-3.22-.67-4.37-1.3-8.75-2-13.12-.21-1.34-.46-2.71-.42-4.08,.02-.83,.18-1.3,.59-1.71,1.36-1.37-.76-3.49-2.12-2.12C-.26,4.8-.11,7.23,.18,9.47c.58,4.49,1.42,8.95,2.05,13.44,.33,2.33,.4,5.44,2.04,7.31,1.1,1.26,2.44,1.4,4,1.22,3.63-.42,7.4-.99,10.92-1.98,1.62-.45,2.75-1.46,3.06-3.19,.23-1.26-.02-2.56-.27-3.8-.39-1.9-.88-3.79-1.29-5.69-.87-4.06-1.21-8.2-2.03-12.25C18.13,1.95,16.64-.03,13.8,0c-2.28,.02-4.61,.69-6.82,1.17-1.83,.39-4.06,.62-5.53,1.91s.68,3.39,2.12,2.12Z"/>
    <path d="M6.33,17.54c1.11,.77,2.09,1.6,3.13,2.56,.61,.56,1.29,1.01,2.15,.77,1.32-.37,2.11-1.92,2.66-3.05,.72-1.47,1.3-3.02,1.83-4.57,.2-.57-.23-1.23-.79-1.38-.62-.17-1.18,.21-1.38,.79-.25,.71-.5,1.42-.78,2.12-.24,.61-.34,.87-.6,1.43-.33,.72-.7,1.42-1.15,2.07-.15,.22,.11-.12,.01-.01-.04,.04-.07,.09-.11,.13-.08,.09-.15,.17-.24,.25-.03,.03-.07,.06-.1,.09-.08,.08,.27-.16,.09-.07-.05,.02-.17,.08-.2,.11,0-.01,.33-.14,.16-.07-.03,0-.05,.02-.08,.02,.1-.02,.34-.01,.1-.03,.07,0,.18,.03,.25,.06,.23,.07,0-.03-.05-.04,.02,0,.18,.16,.01,0-.08-.08-.16-.15-.25-.22-1.12-1.04-2.29-2.01-3.55-2.88-.5-.35-1.25-.09-1.54,.4-.33,.56-.1,1.19,.4,1.54h0Z"/>
  </g>
</svg>