<?xml version="1.0" encoding="UTF-8"?>
<svg id="_Слой_1" data-name="Слой 1" xmlns="http://www.w3.org/2000/svg" xmlns:xlink="http://www.w3.org/1999/xlink" viewBox="0 0 94.07 49.44">
  <defs>
    <style>
      .cls-1 {
        fill: #fff;
      }

      .cls-2 {
        filter: url(#outer-glow-1);
      }

      .cls-3 {
        fill: none;
        stroke: #fff;
        stroke-miterlimit: 10;
        stroke-width: 2px;
      }
    </style>
    <filter id="outer-glow-1" filterUnits="userSpaceOnUse">
      <feOffset dx="0" dy="0"/>
      <feGaussianBlur result="blur" stdDeviation="0"/>
      <feFlood flood-color="#000" flood-opacity="0"/>
      <feComposite in2="blur" operator="in"/>
      <feComposite in="SourceGraphic"/>
    </filter>
  </defs>
  <g class="cls-2">
    <g>
      <g>
        <path class="cls-3" d="M6.63,17.93c0-.24,0-.55,0-.93,.11-5.81,1.87-7.23,3.06-12.16,.05-.22,.15-.63,.47-.78,1.11-.54,3.69,2.48,4.17,3.05,.36,.44,.63,.8,.83,1.1,.29,.42,.38,.98,.86,1.19,.07,.03,.14,.05,.18,.06"/>
        <path class="cls-1" d="M29.61,33.91c-3.59-.3-7.05,.22-10.5,1.19-1.6,.45-3.23,1-4.59,1.98-1.45,1.05-2.54,2.43-3.26,4.07-.28,.63-.52,1.3-.92,1.86-.43,.6-1.06,1.02-1.73,1.32-1.28,.58-3.1,.83-4.09-.4-.7-.87-.81-2.11-.78-3.18s.25-1.95,.83-2.94c.68-1.16,1.68-2.1,2.79-2.84,.43-.29,.88-.55,1.34-.79,.16-.08,.32-.16,.49-.24,.05-.02,.1-.04,.15-.07,.18-.09-.24,.1-.09,.04,.5-.2,.85-.67,.7-1.23-.13-.47-.73-.9-1.23-.7-1.92,.78-3.74,2.02-5.04,3.64-1.71,2.13-2.39,4.99-1.65,7.65,.47,1.67,1.68,3.07,3.43,3.42s3.82-.21,5.28-1.3c.71-.52,1.27-1.18,1.67-1.96,.36-.69,.61-1.43,.97-2.11,.85-1.62,2.24-2.79,3.91-3.51s3.66-1.2,5.5-1.57c2.24-.44,4.53-.52,6.81-.33,1.28,.11,1.28-1.89,0-2h0Z"/>
        <path class="cls-1" d="M5.77,17.42c-2.12,3.13-2.59,7.06-1.23,10.59,.81,2.11,2.1,4.08,3.74,5.64,.93,.89,2.35-.52,1.41-1.41-1.36-1.29-2.45-2.85-3.17-4.61-1.27-3.1-.91-6.43,.97-9.2,.72-1.07-1.01-2.07-1.73-1.01h0Z"/>
        <path class="cls-1" d="M.73,25.82c1.14,.35,2.29,.7,3.43,1.05l.5,.15c.5,.15,1.11-.18,1.23-.7,.12-.54-.16-1.07-.7-1.23-1.14-.35-2.29-.7-3.43-1.05l-.5-.15c-.5-.15-1.11,.18-1.23,.7-.12,.54,.16,1.07,.7,1.23H.73Z"/>
        <path class="cls-1" d="M1.55,22.89c.87,.3,1.74,.61,2.61,.91l.37,.13c.49,.17,1.12-.2,1.23-.7,.13-.56-.17-1.04-.7-1.23-.87-.3-1.74-.61-2.61-.91l-.37-.13c-.49-.17-1.12,.2-1.23,.7-.13,.56,.17,1.04,.7,1.23h0Z"/>
        <path class="cls-1" d="M16.7,10.32c1.88-.85,3.91-1.39,5.98-1.29,1.81,.08,3.38,.87,5.1,1.38,1.61,.48,3.21-.08,3.9-1.67,.32-.74,.47-1.54,.82-2.27,.45-.92,1.2-1.78,2.07-2.33,.17-.11,.34-.21,.55-.24s.38,.02,.11-.01c.05,0,.13,.02,.17,.04,.17,.09-.2-.15,0,0,.05,.04,.12,.07,.17,.11,.12,.07-.15-.17,.02,.02,.06,.06,.12,.11,.18,.17,.04,.04,.22,.26,.15,.17-.08-.1,.11,.15,.13,.19,.06,.09,.11,.17,.17,.26,.16,.27,.31,.54,.44,.82,.31,.64,.58,1.31,.82,1.99,.81,2.21,1.45,4.49,2.12,6.74,.52,1.77,1.05,3.54,1.41,5.35,.91,4.55,.7,9.38-.21,13.91-.25,1.26,1.67,1.79,1.93,.53,.91-4.51,1.13-9.21,.42-13.77-.28-1.78-.75-3.53-1.25-5.26-.69-2.38-1.37-4.77-2.17-7.11-.51-1.48-1.04-3.04-1.89-4.37-.48-.75-1.12-1.48-2.02-1.71-2.01-.51-4.08,1.66-4.94,3.25-.45,.84-.63,1.76-1,2.63-.22,.52-.56,.79-1.01,.76-.76-.06-1.75-.57-2.56-.85-1.09-.38-2.21-.63-3.36-.71-2.53-.18-5,.52-7.28,1.55-.49,.22-.61,.94-.36,1.37,.3,.51,.87,.58,1.37,.36h0Z"/>
        <path class="cls-1" d="M32.98,27.73c.12-.02,.23-.04,.35-.05-.22,.03,.18-.02,.21-.02,.25-.03,.5-.04,.75-.05,.64-.03,1.29,0,1.93,.06,1.07,.11,2.16,.41,3.17,.8,.5,.2,1.1-.22,1.23-.7,.16-.57-.19-1.03-.7-1.23-2.38-.93-4.96-1.14-7.48-.73-.53,.09-.83,.75-.7,1.23,.16,.57,.7,.79,1.23,.7h0Z"/>
        <path class="cls-1" d="M32.07,30.76c-.21-.03,.18,.03,.21,.03,.12,.02,.23,.04,.35,.06,.26,.04,.52,.09,.78,.15,.52,.11,1.04,.24,1.56,.38s1.01,.31,1.51,.49c.23,.08,.46,.17,.68,.26,.03,.01,.38,.16,.22,.09,.12,.05,.23,.1,.35,.15,.48,.21,1.1,.15,1.37-.36,.23-.44,.15-1.14-.36-1.37-2.13-.95-4.34-1.57-6.66-1.87-.52-.07-1.02,.51-1,1,.03,.6,.44,.93,1,1h0Z"/>
        <path class="cls-1" d="M29.35,33.95c-2.9,.56-5.42,1.93-7.61,3.89-1.86,1.67-3.2,3.79-3.12,6.36,.04,1.14,.3,2.35,.98,3.29,.92,1.26,2.4,1.9,3.96,1.82,1.44-.07,2.91-.62,3.97-1.61s1.13-2.23,1.81-3.35c.84-1.41,2.52-2.11,4.04-2.49s3.06-.56,4.59-.55c1.29,0,1.29-1.99,0-2-2.54-.01-5.38,.38-7.65,1.57-1.26,.66-2.39,1.68-2.98,2.98-.46,1.01-.63,2.09-1.62,2.73s-2.23,.94-3.33,.59-1.57-1.33-1.73-2.37c-.29-1.95,.55-3.66,1.92-5.02,2.04-2.02,4.48-3.36,7.3-3.91,1.26-.25,.73-2.17-.53-1.93h0Z"/>
      </g>
      <path class="cls-1" d="M40.08,10.83c.33-.31,.68-.59,1.04-.87,.13-.1-.1,.07,.08-.06,.08-.06,.16-.12,.24-.18,.18-.13,.36-.26,.54-.39,.42-.3,.86-.58,1.3-.85,2.37-1.45,4.96-2.52,7.69-3.07,6.53-1.31,13.27,.88,18.02,5.48,1.44,1.4,2.53,2.72,3.54,4.41,.66,1.1,2.39,.1,1.73-1.01-2.54-4.22-6.47-7.66-11.01-9.56-6.56-2.75-13.91-1.95-20.05,1.48-1.61,.9-3.18,1.96-4.53,3.21-.95,.88,.47,2.29,1.41,1.41h0Z"/>
      <path class="cls-1" d="M56.95,35.46c-5.94,2.73-12.45,4.04-18.98,3.85-1.29-.04-1.29,1.96,0,2,6.9,.2,13.73-1.24,19.99-4.12,.49-.23,.61-.93,.36-1.37-.29-.5-.88-.59-1.37-.36h0Z"/>
      <path class="cls-1" d="M57.46,37.32c1.29,0,1.29-2,0-2s-1.29,2,0,2h0Z"/>
      <path class="cls-1" d="M76.67,21.87c1.34,2.86,2.69,6.08,2.69,9.29,0,1.3-.29,2.67-1.33,3.54-1.1,.92-2.67,1.08-4.05,1.07-1.74,0-3.46-.32-5.19-.49-.54-.05-1,.5-1,1,0,.58,.46,.95,1,1,3.26,.31,7.25,1.31,10.15-.77,3.12-2.24,2.63-6.54,1.73-9.78-.57-2.02-1.38-3.97-2.26-5.87-.23-.49-.93-.61-1.37-.36-.5,.29-.59,.88-.36,1.37h0Z"/>
      <g>
        <path class="cls-1" d="M73.66,15.75c3.04-.55,6.51-.12,9.4,1.3,1.44,.71,2.77,1.63,3.92,2.74,.43,.41,.84,.85,1.22,1.3,.08,.09,.15,.18,.23,.28,.03,.04,.06,.07,.09,.11,.1,.12-.08-.12,0,0,.05,.07,.1,.14,.15,.22,3.01,4.46,4.38,10.55,2.68,15.72-1.12,3.4-3.54,6.23-6.53,8.15-1.08,.69-.08,2.42,1.01,1.73,2.85-1.82,5.27-4.36,6.7-7.45,1.72-3.73,1.93-7.87,.98-11.83-.59-2.47-1.6-4.91-2.95-7.06s-3.33-3.82-5.43-5.05c-3.61-2.12-7.9-2.82-12-2.08-1.26,.23-.73,2.16,.53,1.93h0Z"/>
        <path class="cls-1" d="M84.44,37.85c2.21-2.8,2.98-6.25,1.62-9.62-1.44-3.57-4.56-6.2-8.02-7.73-.49-.22-1.07-.14-1.37,.36-.25,.42-.14,1.15,.36,1.37,2.96,1.3,5.75,3.44,7.08,6.47,1.18,2.69,.73,5.43-1.07,7.73-.33,.42-.41,1,0,1.41,.35,.35,1.08,.43,1.41,0h0Z"/>
        <path class="cls-1" d="M84.82,45.57c-2.3,1.04-4.84,1.93-7.4,1.86-1.59-.04-2.83-.48-4.11-1.47-.78-.6-1.52-1.25-2.31-1.84-1.09-.81-2.27-1.5-3.51-2.05-1.91-.86-4.27-1.75-6.17-.37-.86,.63-1.24,1.58-1.97,2.3-.66,.66-1.73,.12-2.36-.46-.85-.79-1.32-1.82-1.08-2.98,.25-1.23,1.04-2.32,1.91-3.2,1.85-1.86,4.49-2.76,7.09-2.18,1.04,.23,2.01,.67,2.69,1.38s1.39,1.31,2.13,1.9c2.29,1.81,5.11,3.33,8.12,3.03,2.6-.26,4.88-1.73,6.59-3.65,.85-.96-.56-2.38-1.41-1.41-1.48,1.66-3.47,3.05-5.77,3.1-2.55,.05-4.89-1.42-6.76-3.01-.71-.6-1.32-1.32-2.05-1.89-1.07-.84-2.41-1.31-3.75-1.5-2.98-.42-5.92,.56-8.1,2.63-1.98,1.89-3.58,4.84-2.28,7.55,1.05,2.18,4.29,4.23,6.39,2.16,.71-.7,1.07-1.81,2-2.28,.14-.07,.27-.11,.42-.16,.07-.02,.15-.03,.22-.05-.25,.05,.03,0,.07,0,.45,0,.73,.03,1.18,.15,2.62,.69,4.81,2.26,6.87,3.94,1.63,1.33,3.31,2.18,5.43,2.35,3.08,.24,6.16-.87,8.92-2.11,.49-.22,.61-.94,.36-1.37-.3-.51-.87-.58-1.37-.36h0Z"/>
      </g>
      <path class="cls-1" d="M44.35,3.65l1.03-1.27-.36,.1,.71,.15c.24,.05,.56,.18,.81,.14s.47-.38,.63-.56l.52-.56-.36,.1,1.6,.3c.47,.09,.67-.64,.2-.72-.53-.1-1.06-.21-1.6-.3-.34-.05-.54,.27-.74,.49l-.56,.61,.36-.1-1.36-.28c-.12-.03-.28,0-.36,.1l-1.03,1.27c-.13,.16-.15,.38,0,.53,.13,.13,.4,.16,.53,0h0Z"/>
      <path class="cls-1" d="M57.46,1.43c.55-.24,1.09-.48,1.64-.73h-.38c.45,.34,.89,.67,1.34,1.01,.16,.12,.42,.03,.51-.13,.11-.19,.03-.39-.13-.51-.45-.34-.89-.67-1.34-1.01-.11-.08-.26-.05-.38,0-.55,.24-1.09,.48-1.64,.73-.19,.08-.23,.35-.13,.51,.11,.19,.33,.22,.51,.13h0Z"/>
      <path class="cls-1" d="M68.82,4.74l1.93,.32-.28-.36,.08,1.3c.01,.22,.16,.36,.38,.38l1.45,.12-.36-.28,.4,1.75c.11,.47,.83,.27,.72-.2l-.4-1.75c-.04-.17-.2-.26-.36-.28l-1.45-.12,.38,.38-.08-1.3c0-.15-.11-.33-.28-.36l-1.93-.32c-.2-.03-.4,.05-.46,.26-.05,.18,.06,.43,.26,.46h0Z"/>
    </g>
    <path class="cls-1" d="M13.13,24.35c.2-.04,.39-.08,.59-.11l-.27,.04c.67-.09,1.34-.09,2.01,0l-.27-.04c.18,.03,.37,.06,.55,.1,.26,.06,.53,.04,.77-.1,.21-.12,.41-.36,.46-.6,.11-.5-.15-1.12-.7-1.23-1.22-.26-2.47-.25-3.69,.01-.51,.11-.86,.74-.7,1.23,.17,.54,.68,.82,1.23,.7h0Z"/>
    <path class="cls-1" d="M24.88,24.9c.58-.06,1.16-.04,1.73,.03l-.27-.04c.48,.07,.95,.18,1.41,.33,.5,.17,1.11-.19,1.23-.7,.13-.55-.17-1.05-.7-1.23-1.08-.37-2.26-.51-3.4-.4-.27,.03-.51,.09-.71,.29-.17,.17-.3,.46-.29,.71,.02,.5,.44,1.05,1,1h0Z"/>
  </g>
</svg>